%TF.GenerationSoftware,KiCad,Pcbnew,8.0.3*%
%TF.CreationDate,2024-06-29T12:04:23+02:00*%
%TF.ProjectId,business_card,62757369-6e65-4737-935f-636172642e6b,v01*%
%TF.SameCoordinates,PX6590fa0PY7bfa480*%
%TF.FileFunction,Legend,Bot*%
%TF.FilePolarity,Positive*%
%FSLAX46Y46*%
G04 Gerber Fmt 4.6, Leading zero omitted, Abs format (unit mm)*
G04 Created by KiCad (PCBNEW 8.0.3) date 2024-06-29 12:04:23*
%MOMM*%
%LPD*%
G01*
G04 APERTURE LIST*
%ADD10C,0.150000*%
G04 APERTURE END LIST*
D10*
X88410051Y49010051D02*
X88410051Y2989949D01*
X3000000Y50400000D02*
X87010051Y50410051D01*
X1600000Y49000000D02*
G75*
G02*
X3000000Y50400000I1400000J0D01*
G01*
X87010051Y50410051D02*
G75*
G02*
X88410051Y49010051I-51J-1400051D01*
G01*
X1600000Y49000000D02*
X1589561Y2989949D01*
X2989949Y1589949D02*
X87010051Y1589949D01*
X2989949Y1589949D02*
G75*
G02*
X1589949Y2989949I51J1400051D01*
G01*
X88410051Y2989949D02*
G75*
G02*
X87010051Y1589949I-1400051J51D01*
G01*
X86963220Y2330181D02*
X86963220Y3330181D01*
X86963220Y2949229D02*
X86867982Y2996848D01*
X86867982Y2996848D02*
X86677506Y2996848D01*
X86677506Y2996848D02*
X86582268Y2949229D01*
X86582268Y2949229D02*
X86534649Y2901610D01*
X86534649Y2901610D02*
X86487030Y2806372D01*
X86487030Y2806372D02*
X86487030Y2520658D01*
X86487030Y2520658D02*
X86534649Y2425420D01*
X86534649Y2425420D02*
X86582268Y2377800D01*
X86582268Y2377800D02*
X86677506Y2330181D01*
X86677506Y2330181D02*
X86867982Y2330181D01*
X86867982Y2330181D02*
X86963220Y2377800D01*
X85629887Y2996848D02*
X85629887Y2330181D01*
X86058458Y2996848D02*
X86058458Y2473039D01*
X86058458Y2473039D02*
X86010839Y2377800D01*
X86010839Y2377800D02*
X85915601Y2330181D01*
X85915601Y2330181D02*
X85772744Y2330181D01*
X85772744Y2330181D02*
X85677506Y2377800D01*
X85677506Y2377800D02*
X85629887Y2425420D01*
X85201315Y2377800D02*
X85106077Y2330181D01*
X85106077Y2330181D02*
X84915601Y2330181D01*
X84915601Y2330181D02*
X84820363Y2377800D01*
X84820363Y2377800D02*
X84772744Y2473039D01*
X84772744Y2473039D02*
X84772744Y2520658D01*
X84772744Y2520658D02*
X84820363Y2615896D01*
X84820363Y2615896D02*
X84915601Y2663515D01*
X84915601Y2663515D02*
X85058458Y2663515D01*
X85058458Y2663515D02*
X85153696Y2711134D01*
X85153696Y2711134D02*
X85201315Y2806372D01*
X85201315Y2806372D02*
X85201315Y2853991D01*
X85201315Y2853991D02*
X85153696Y2949229D01*
X85153696Y2949229D02*
X85058458Y2996848D01*
X85058458Y2996848D02*
X84915601Y2996848D01*
X84915601Y2996848D02*
X84820363Y2949229D01*
X84344172Y2330181D02*
X84344172Y2996848D01*
X84344172Y3330181D02*
X84391791Y3282562D01*
X84391791Y3282562D02*
X84344172Y3234943D01*
X84344172Y3234943D02*
X84296553Y3282562D01*
X84296553Y3282562D02*
X84344172Y3330181D01*
X84344172Y3330181D02*
X84344172Y3234943D01*
X83867982Y2996848D02*
X83867982Y2330181D01*
X83867982Y2901610D02*
X83820363Y2949229D01*
X83820363Y2949229D02*
X83725125Y2996848D01*
X83725125Y2996848D02*
X83582268Y2996848D01*
X83582268Y2996848D02*
X83487030Y2949229D01*
X83487030Y2949229D02*
X83439411Y2853991D01*
X83439411Y2853991D02*
X83439411Y2330181D01*
X82582268Y2377800D02*
X82677506Y2330181D01*
X82677506Y2330181D02*
X82867982Y2330181D01*
X82867982Y2330181D02*
X82963220Y2377800D01*
X82963220Y2377800D02*
X83010839Y2473039D01*
X83010839Y2473039D02*
X83010839Y2853991D01*
X83010839Y2853991D02*
X82963220Y2949229D01*
X82963220Y2949229D02*
X82867982Y2996848D01*
X82867982Y2996848D02*
X82677506Y2996848D01*
X82677506Y2996848D02*
X82582268Y2949229D01*
X82582268Y2949229D02*
X82534649Y2853991D01*
X82534649Y2853991D02*
X82534649Y2758753D01*
X82534649Y2758753D02*
X83010839Y2663515D01*
X82153696Y2377800D02*
X82058458Y2330181D01*
X82058458Y2330181D02*
X81867982Y2330181D01*
X81867982Y2330181D02*
X81772744Y2377800D01*
X81772744Y2377800D02*
X81725125Y2473039D01*
X81725125Y2473039D02*
X81725125Y2520658D01*
X81725125Y2520658D02*
X81772744Y2615896D01*
X81772744Y2615896D02*
X81867982Y2663515D01*
X81867982Y2663515D02*
X82010839Y2663515D01*
X82010839Y2663515D02*
X82106077Y2711134D01*
X82106077Y2711134D02*
X82153696Y2806372D01*
X82153696Y2806372D02*
X82153696Y2853991D01*
X82153696Y2853991D02*
X82106077Y2949229D01*
X82106077Y2949229D02*
X82010839Y2996848D01*
X82010839Y2996848D02*
X81867982Y2996848D01*
X81867982Y2996848D02*
X81772744Y2949229D01*
X81344172Y2377800D02*
X81248934Y2330181D01*
X81248934Y2330181D02*
X81058458Y2330181D01*
X81058458Y2330181D02*
X80963220Y2377800D01*
X80963220Y2377800D02*
X80915601Y2473039D01*
X80915601Y2473039D02*
X80915601Y2520658D01*
X80915601Y2520658D02*
X80963220Y2615896D01*
X80963220Y2615896D02*
X81058458Y2663515D01*
X81058458Y2663515D02*
X81201315Y2663515D01*
X81201315Y2663515D02*
X81296553Y2711134D01*
X81296553Y2711134D02*
X81344172Y2806372D01*
X81344172Y2806372D02*
X81344172Y2853991D01*
X81344172Y2853991D02*
X81296553Y2949229D01*
X81296553Y2949229D02*
X81201315Y2996848D01*
X81201315Y2996848D02*
X81058458Y2996848D01*
X81058458Y2996848D02*
X80963220Y2949229D01*
X79296553Y2377800D02*
X79391791Y2330181D01*
X79391791Y2330181D02*
X79582267Y2330181D01*
X79582267Y2330181D02*
X79677505Y2377800D01*
X79677505Y2377800D02*
X79725124Y2425420D01*
X79725124Y2425420D02*
X79772743Y2520658D01*
X79772743Y2520658D02*
X79772743Y2806372D01*
X79772743Y2806372D02*
X79725124Y2901610D01*
X79725124Y2901610D02*
X79677505Y2949229D01*
X79677505Y2949229D02*
X79582267Y2996848D01*
X79582267Y2996848D02*
X79391791Y2996848D01*
X79391791Y2996848D02*
X79296553Y2949229D01*
X78439410Y2330181D02*
X78439410Y2853991D01*
X78439410Y2853991D02*
X78487029Y2949229D01*
X78487029Y2949229D02*
X78582267Y2996848D01*
X78582267Y2996848D02*
X78772743Y2996848D01*
X78772743Y2996848D02*
X78867981Y2949229D01*
X78439410Y2377800D02*
X78534648Y2330181D01*
X78534648Y2330181D02*
X78772743Y2330181D01*
X78772743Y2330181D02*
X78867981Y2377800D01*
X78867981Y2377800D02*
X78915600Y2473039D01*
X78915600Y2473039D02*
X78915600Y2568277D01*
X78915600Y2568277D02*
X78867981Y2663515D01*
X78867981Y2663515D02*
X78772743Y2711134D01*
X78772743Y2711134D02*
X78534648Y2711134D01*
X78534648Y2711134D02*
X78439410Y2758753D01*
X77963219Y2330181D02*
X77963219Y2996848D01*
X77963219Y2806372D02*
X77915600Y2901610D01*
X77915600Y2901610D02*
X77867981Y2949229D01*
X77867981Y2949229D02*
X77772743Y2996848D01*
X77772743Y2996848D02*
X77677505Y2996848D01*
X76915600Y2330181D02*
X76915600Y3330181D01*
X76915600Y2377800D02*
X77010838Y2330181D01*
X77010838Y2330181D02*
X77201314Y2330181D01*
X77201314Y2330181D02*
X77296552Y2377800D01*
X77296552Y2377800D02*
X77344171Y2425420D01*
X77344171Y2425420D02*
X77391790Y2520658D01*
X77391790Y2520658D02*
X77391790Y2806372D01*
X77391790Y2806372D02*
X77344171Y2901610D01*
X77344171Y2901610D02*
X77296552Y2949229D01*
X77296552Y2949229D02*
X77201314Y2996848D01*
X77201314Y2996848D02*
X77010838Y2996848D01*
X77010838Y2996848D02*
X76915600Y2949229D01*
X75772742Y2996848D02*
X75534647Y2330181D01*
X75534647Y2330181D02*
X75296552Y2996848D01*
X74725123Y3330181D02*
X74629885Y3330181D01*
X74629885Y3330181D02*
X74534647Y3282562D01*
X74534647Y3282562D02*
X74487028Y3234943D01*
X74487028Y3234943D02*
X74439409Y3139705D01*
X74439409Y3139705D02*
X74391790Y2949229D01*
X74391790Y2949229D02*
X74391790Y2711134D01*
X74391790Y2711134D02*
X74439409Y2520658D01*
X74439409Y2520658D02*
X74487028Y2425420D01*
X74487028Y2425420D02*
X74534647Y2377800D01*
X74534647Y2377800D02*
X74629885Y2330181D01*
X74629885Y2330181D02*
X74725123Y2330181D01*
X74725123Y2330181D02*
X74820361Y2377800D01*
X74820361Y2377800D02*
X74867980Y2425420D01*
X74867980Y2425420D02*
X74915599Y2520658D01*
X74915599Y2520658D02*
X74963218Y2711134D01*
X74963218Y2711134D02*
X74963218Y2949229D01*
X74963218Y2949229D02*
X74915599Y3139705D01*
X74915599Y3139705D02*
X74867980Y3234943D01*
X74867980Y3234943D02*
X74820361Y3282562D01*
X74820361Y3282562D02*
X74725123Y3330181D01*
X73439409Y2330181D02*
X74010837Y2330181D01*
X73725123Y2330181D02*
X73725123Y3330181D01*
X73725123Y3330181D02*
X73820361Y3187324D01*
X73820361Y3187324D02*
X73915599Y3092086D01*
X73915599Y3092086D02*
X74010837Y3044467D01*
M02*
