M48
; DRILL file {KiCad 8.0.3} date 2024-06-29T12:03:12+0200
; FORMAT={-:-/ absolute / metric / decimal}
; #@! TF.CreationDate,2024-06-29T12:03:12+02:00
; #@! TF.GenerationSoftware,Kicad,Pcbnew,8.0.3
; #@! TF.FileFunction,Plated,1,2,PTH
FMAT,2
METRIC
; #@! TA.AperFunction,Plated,PTH,ComponentDrill
T1C0.600
; #@! TA.AperFunction,Plated,PTH,ComponentDrill
T2C0.720
; #@! TA.AperFunction,Plated,PTH,ComponentDrill
T3C0.762
; #@! TA.AperFunction,Plated,PTH,ComponentDrill
T4C0.800
; #@! TA.AperFunction,Plated,PTH,ComponentDrill
T5C0.900
; #@! TA.AperFunction,Plated,PTH,ComponentDrill
T6C1.000
; #@! TA.AperFunction,Plated,PTH,ComponentDrill
T7C1.050
%
G90
G05
T1
X68.25Y20.5
X68.25Y18.5
T2
X24.5Y18.04
X24.5Y15.5
X24.5Y12.96
T3
X52.328Y15.56
X52.328Y13.02
X52.328Y10.48
X52.328Y7.94
X59.947Y15.56
X59.947Y13.02
X59.947Y10.48
X59.947Y7.94
T4
X35.92Y17.0
X35.92Y11.75
X35.92Y6.7
X46.08Y17.0
X46.08Y11.75
X46.08Y6.7
X68.5Y9.0
X68.5Y4.0
X76.75Y16.58
X76.75Y6.42
X82.5Y16.58
X82.5Y6.42
T5
X6.0Y36.765
X6.0Y34.225
X6.0Y30.275
X6.0Y27.735
T6
X9.4Y24.5
X9.4Y3.4
X12.5Y24.5
X12.5Y3.4
X72.0Y35.5
X72.0Y30.5
X74.5Y33.0
T7
X23.3Y5.6
X30.92Y5.6
M30
